HIERARCHY
ROOT Hips
{
	OFFSET 0.000000 0.000000 0.000000
	CHANNELS 6 Xposition Yposition Zposition Xrotation Yrotation Zrotation
	JOINT LeftUpLeg_virtual
	{
		OFFSET 0.000000 0.000000 0.000000
		CHANNELS 3 Xrotation Yrotation Zrotation
		JOINT LeftUpLeg
		{
			OFFSET 10.205400 -3.823500 0.155100
			CHANNELS 3 Xrotation Yrotation Zrotation
			JOINT LeftLeg
			{
				OFFSET 0.708757 -12.982077 0.567790
				CHANNELS 3 Xrotation Yrotation Zrotation
				JOINT LeftFoot
				{
					OFFSET -0.708756 -10.717838 -2.184338
					CHANNELS 3 Xrotation Yrotation Zrotation
					JOINT LeftToeBase
					{
						OFFSET 0.108149 -7.191104 7.560241
						CHANNELS 3 Xrotation Yrotation Zrotation
						JOINT LeftToe_End
						{
							OFFSET 0.070230 0.081724 4.490308
							CHANNELS 3 Xrotation Yrotation Zrotation
							End Site
							{
								OFFSET 0 0 0
							}
						}
					}
				}
			}
		}
	}
	JOINT RightUpLeg_virtual
	{
		OFFSET 0.000000 0.000000 0.000000
		CHANNELS 3 Xrotation Yrotation Zrotation
		JOINT RightUpLeg
		{
			OFFSET -10.205400 -3.823500 0.005500
			CHANNELS 3 Xrotation Yrotation Zrotation
			JOINT RightLeg
			{
				OFFSET -0.708756 -12.982134 0.610632
				CHANNELS 3 Xrotation Yrotation Zrotation
				JOINT RightFoot
				{
					OFFSET 0.708754 -10.717769 -1.945823
					CHANNELS 3 Xrotation Yrotation Zrotation
					JOINT RightToeBase
					{
						OFFSET -0.108140 -7.191069 7.372968
						CHANNELS 3 Xrotation Yrotation Zrotation
						JOINT RightToe_End
						{
							OFFSET -0.070227 0.081735 4.479403
							CHANNELS 3 Xrotation Yrotation Zrotation
							End Site
							{
								OFFSET 0 0 0
							}
						}
					}
				}
			}
		}
	}
	JOINT Spine_virtual
	{
		OFFSET 0.000000 0.000000 0.000000
		CHANNELS 3 Xrotation Yrotation Zrotation
		JOINT Spine
		{
			OFFSET 0.000000 6.876099 0.125700
			CHANNELS 3 Xrotation Yrotation Zrotation
			JOINT Spine1
			{
				OFFSET 0.000000 5.730043 0.104720
				CHANNELS 3 Xrotation Yrotation Zrotation
				JOINT Spine1_split
				{
					OFFSET 0.000000 5.730043 0.104720
					CHANNELS 3 Xrotation Yrotation Zrotation
					JOINT Spine2
					{
						OFFSET 0.000000 5.730043 0.104720
						CHANNELS 3 Xrotation Yrotation Zrotation
						JOINT Neck_virtual
						{
							OFFSET 0.000000 0.000000 0.000000
							CHANNELS 3 Xrotation Yrotation Zrotation
							JOINT Neck
							{
								OFFSET 0.000000 10.314075 0.188496
								CHANNELS 3 Xrotation Yrotation Zrotation
								JOINT Head
								{
									OFFSET 0.000000 7.643700 -2.377400
									CHANNELS 3 Xrotation Yrotation Zrotation
									JOINT HeadTop_End
									{
										OFFSET 0.000000 43.788605 -13.619600
										CHANNELS 3 Xrotation Yrotation Zrotation
										End Site
										{
											OFFSET 0 0 0
										}
									}
								}
							}
						}
						JOINT LeftShoulder_virtual
						{
							OFFSET 0.000000 0.000000 0.000000
							CHANNELS 3 Xrotation Yrotation Zrotation
							JOINT LeftShoulder
							{
								OFFSET 2.196100 4.412489 0.087492
								CHANNELS 3 Xrotation Yrotation Zrotation
								JOINT LeftShoulder_split
								{
									OFFSET 2.196100 4.412489 0.087492
									CHANNELS 3 Xrotation Yrotation Zrotation
									JOINT LeftArm
									{
										OFFSET 8.771219 -2.981674 -0.026999
										CHANNELS 3 Xrotation Yrotation Zrotation
										JOINT LeftForeArm
										{
											OFFSET 8.512804 0.000000 -0.000000
											CHANNELS 3 Xrotation Yrotation Zrotation
											JOINT LeftHand
											{
												OFFSET 18.484802 0.000000 -0.000000
												CHANNELS 3 Xrotation Yrotation Zrotation
												End Site
												{
													OFFSET 0 0 0
												}
											}
										}
									}
								}
							}
						}
						JOINT RightShoulder_virtual
						{
							OFFSET 0.000000 0.000000 0.000000
							CHANNELS 3 Xrotation Yrotation Zrotation
							JOINT RightShoulder
							{
								OFFSET -2.196100 4.412496 0.070690
								CHANNELS 3 Xrotation Yrotation Zrotation
								JOINT RightShoulder_split
								{
									OFFSET -2.196100 4.412496 0.070690
									CHANNELS 3 Xrotation Yrotation Zrotation
									JOINT RightArm
									{
										OFFSET -8.771282 -2.981682 -0.094208
										CHANNELS 3 Xrotation Yrotation Zrotation
										JOINT RightForeArm
										{
											OFFSET -8.494598 0.000000 0.000000
											CHANNELS 3 Xrotation Yrotation Zrotation
											JOINT RightHand
											{
												OFFSET -18.483803 0.000000 0.000001
												CHANNELS 3 Xrotation Yrotation Zrotation
												End Site
												{
													OFFSET 0 0 0
												}
											}
										}
									}
								}
							}
						}
					}
				}
			}
		}
	}
}
MOTION
Frames: 10
Frame Time: 0.03333333
-0.832594 44.601585 131.913696 0.000000 0.000000 0.000000 20.011846 -37.261120 29.146476 -86.416919 -18.261955 9.982928 91.376354 11.861093 6.123849 -15.996687 0.481134 15.964742 0.960194 -0.986711 -3.648076 0.000000 0.000000 0.000000 15.898905 -35.177848 25.539650 -89.793669 -18.746518 -7.581996 81.310711 24.988291 20.098207 25.299357 18.507736 18.882492 -2.632397 3.707318 -2.072063 0.000000 0.000000 0.000000 13.688103 -29.948050 24.235038 34.918024 2.579569 -28.996950 13.522537 0.135702 -3.324221 1.880232 0.258293 0.333029 0.000000 0.000000 0.000000 18.076145 -1.195745 -0.359105 -2.521244 13.374230 -13.320962 -38.394256 -5.167042 0.452909 0.000000 0.000000 0.000000 17.093793 -0.600940 -0.967091 3.084255 -17.556984 -3.855435 1.066318 -1.534461 -0.594750 -87.217773 2.955778 -4.458165 10.398036 -57.179728 6.414106 0.000000 0.000000 0.000000 17.190027 -1.274245 -0.733074 5.906998 28.690107 -1.015128 -1.023223 3.694194 6.181427 -64.629238 -8.136531 40.390908 -82.276964 24.729038 59.537864 0.000000 0.000000 0.000000 
-0.634532 43.942543 136.359344 0.000000 0.000000 0.000000 21.152780 -34.386659 28.035888 -79.813568 -15.129030 14.942910 80.958519 11.583617 4.799526 -22.385552 2.187748 16.650519 -0.139708 -1.366323 -2.924249 0.000000 0.000000 0.000000 18.205164 -33.746390 25.213722 -83.056241 -22.143927 -7.616977 58.450225 18.159702 24.855837 23.147492 15.328222 17.671176 -3.020154 3.901777 -1.127496 0.000000 0.000000 0.000000 15.349809 -28.143140 23.813472 35.336837 2.805648 -27.261319 13.004816 -0.358641 -3.292705 2.832113 0.407289 0.358453 0.000000 0.000000 0.000000 17.748644 -1.518378 -0.497903 -2.701330 13.876737 -15.617709 -41.481358 -5.600127 1.052398 0.000000 0.000000 0.000000 16.427329 -0.990400 -1.121034 3.257259 -16.052915 -4.276938 1.437742 -2.113553 -0.845896 -85.393204 -0.270593 -2.568261 0.535267 -57.372899 -1.988365 0.000000 0.000000 0.000000 16.622054 -1.759693 -0.890707 5.587771 26.995795 0.965955 -0.665297 2.355329 6.449626 -59.470116 -7.925384 42.532930 -83.677160 26.554514 63.102492 0.000000 0.000000 0.000000 
-0.572122 42.620663 140.777054 0.000000 0.000000 0.000000 20.197662 -30.356516 25.827686 -75.966074 -12.323038 19.142454 72.322974 10.333975 3.632180 -25.735087 3.129622 14.422493 -1.033981 -1.542857 -2.156229 0.000000 0.000000 0.000000 19.541760 -31.395238 24.586253 -71.980215 -21.023278 -7.802782 38.573452 11.394343 25.189823 21.519646 11.009859 16.410685 -3.145589 3.629340 1.018736 0.000000 0.000000 0.000000 16.063782 -26.307119 22.902440 34.444736 3.362004 -25.138175 12.133256 -0.858814 -2.869381 2.836495 0.338367 0.204372 0.000000 0.000000 0.000000 16.792006 -1.774455 -0.199043 -2.149203 13.728287 -17.577786 -43.391382 -4.949957 1.410596 0.000000 0.000000 0.000000 15.548451 -1.295149 -0.710504 3.330909 -13.223653 -4.238847 2.716019 -2.657672 -1.243063 -83.433172 -1.093662 -0.964465 -7.075112 -58.621765 -8.618103 0.000000 0.000000 0.000000 15.875451 -2.144808 -0.615175 5.399405 25.321383 3.210547 -1.238486 1.557797 6.258881 -51.315269 -6.517612 44.241075 -83.416158 28.392313 65.982721 0.000000 0.000000 0.000000 
-0.424420 40.855316 145.207779 0.000000 0.000000 0.000000 18.390397 -26.598094 23.414877 -74.277235 -11.016002 21.943402 65.731534 8.346715 2.987572 -25.939544 3.529045 9.222377 -1.185285 -1.564217 -1.997898 0.000000 0.000000 0.000000 19.508185 -28.447098 23.389882 -58.254369 -15.416323 -8.820888 25.193113 8.539741 22.646030 19.885951 7.241067 17.280928 -3.820506 2.934264 3.107238 0.000000 0.000000 0.000000 16.369474 -24.885671 21.742577 32.682981 4.026081 -22.704314 10.895106 -1.341769 -2.254226 1.846501 0.698271 0.233048 0.000000 0.000000 0.000000 15.321272 -1.989677 0.363965 -0.694975 13.052043 -18.850132 -43.659198 -3.319866 1.531443 0.000000 0.000000 0.000000 14.472283 -1.540828 0.041939 3.280356 -9.909017 -3.859963 4.604343 -2.672768 -1.538798 -82.005048 0.811015 0.662593 -13.951235 -61.196787 -14.892961 0.000000 0.000000 0.000000 14.963362 -2.445083 -0.063249 5.233549 23.785413 5.485611 -2.244981 1.199218 6.042369 -40.857717 -5.085300 44.949666 -82.516670 30.543472 68.752834 0.000000 0.000000 0.000000 
-0.218279 38.883198 149.847885 0.000000 0.000000 0.000000 16.806609 -24.566403 21.149020 -73.141682 -11.301056 23.274452 60.286856 7.042019 2.904184 -23.930790 3.120117 3.671427 -1.048882 -1.560375 -2.334944 0.000000 0.000000 0.000000 18.918798 -26.257889 21.774160 -43.827285 -7.414808 -9.994851 18.342050 8.818520 19.393571 16.185566 3.623072 19.960985 -5.517764 1.853437 3.827314 0.000000 0.000000 0.000000 16.333646 -24.383367 20.146872 30.481806 4.803380 -19.820473 9.407862 -1.737044 -1.684171 0.775840 0.368621 0.295674 0.000000 0.000000 0.000000 13.409622 -2.258355 0.863573 1.852701 12.182825 -19.247154 -42.058894 -0.717238 1.525689 0.000000 0.000000 0.000000 13.184873 -1.765903 0.789706 3.006933 -6.987126 -3.151087 5.959269 -1.982887 -2.493478 -81.406081 4.915745 2.063278 -21.573031 -64.520699 -22.203058 0.000000 0.000000 0.000000 13.760326 -2.669892 0.482184 4.940853 22.289807 7.887116 -3.329818 1.058841 6.172550 -29.073175 -5.389164 44.904911 -82.520775 33.477209 72.621440 0.000000 0.000000 0.000000 
-0.014108 36.922722 154.909241 0.000000 0.000000 0.000000 15.599344 -24.441439 18.519433 -70.532768 -11.417553 24.514871 54.303795 7.865329 2.914355 -22.123864 2.202361 0.939718 -0.063366 -1.637600 -3.077435 0.000000 0.000000 0.000000 17.478043 -25.761727 19.567816 -30.214448 0.478155 -10.142600 17.448312 10.843459 15.999660 7.317334 -0.380896 22.003320 -6.564129 0.853581 2.648734 0.000000 0.000000 0.000000 15.946229 -25.063087 17.965681 28.495040 5.697459 -16.473844 7.633997 -1.945104 -1.381546 0.426855 0.048864 0.206970 0.000000 0.000000 0.000000 11.231953 -2.472964 0.973247 5.320550 11.163696 -18.770135 -38.825432 2.250567 1.166358 0.000000 0.000000 0.000000 11.622661 -1.953232 1.205638 2.556611 -5.252062 -2.599696 6.597553 -1.236375 -3.522526 -80.614530 9.855147 3.014013 -31.427377 -68.497085 -31.984133 0.000000 0.000000 0.000000 12.183389 -2.798158 0.812734 4.546352 20.721443 10.154236 -3.957234 0.874663 6.358317 -17.114965 -8.628722 44.888355 -84.800521 37.243519 78.565187 0.000000 0.000000 0.000000 
0.296475 35.075096 160.343643 0.000000 0.000000 0.000000 14.743670 -26.193905 15.501645 -65.791032 -9.817795 26.409256 47.523947 10.534273 2.800625 -20.954551 1.378620 1.411907 0.968831 -1.874432 -3.712915 0.000000 0.000000 0.000000 15.199973 -26.915016 16.488889 -18.379378 6.343533 -9.344299 21.690432 12.509956 12.586929 -6.269257 -4.660045 20.121739 -5.831289 0.331739 0.281518 0.000000 0.000000 0.000000 14.659225 -26.737848 15.304109 27.102877 6.643059 -12.925382 5.709581 -1.845254 -1.354939 0.950191 -0.246588 0.450908 0.000000 0.000000 0.000000 8.922747 -2.566781 0.724340 8.992064 10.114200 -17.440497 -34.448551 5.130819 0.403018 0.000000 0.000000 0.000000 9.710221 -2.052251 1.234772 1.981066 -5.098477 -2.475103 6.010473 -0.822634 -3.986544 -78.345500 14.558408 2.908928 -44.329721 -72.624705 -45.220907 0.000000 0.000000 0.000000 10.062038 -2.808340 0.860258 4.096520 18.927086 12.001326 -3.907483 0.970751 6.104937 -6.236992 -14.527689 45.608100 -89.197421 41.020976 85.928534 0.000000 0.000000 0.000000 
0.441950 33.543545 165.797226 0.000000 0.000000 0.000000 13.331053 -28.728267 12.016718 -60.023532 -5.947791 28.886311 41.606046 13.765566 2.266921 -18.855413 0.457931 3.033177 0.406901 -2.104333 -3.533460 0.000000 0.000000 0.000000 12.232951 -29.444331 12.935881 -9.437303 9.826629 -7.848452 28.786447 12.388420 9.254454 -20.251045 -7.177807 14.333552 -4.622838 0.112673 -2.122924 0.000000 0.000000 0.000000 12.420379 -28.563066 12.071711 26.517323 7.552204 -9.584483 3.650640 -1.409951 -1.336371 1.845893 -0.951146 0.771507 0.000000 0.000000 0.000000 6.510485 -2.420709 0.356702 12.127704 9.104253 -15.774807 -29.756887 7.498171 -0.634691 0.000000 0.000000 0.000000 7.399721 -1.987978 1.097229 1.340109 -6.384004 -2.824600 4.882017 -0.667645 -3.865295 -74.070212 17.998296 1.143525 -60.216375 -76.439973 -61.960382 0.000000 0.000000 0.000000 7.313523 -2.626498 0.845338 3.718061 16.881859 13.451541 -3.398542 1.724194 5.043272 3.080552 -21.819266 47.696324 -93.046253 44.352503 91.883666 0.000000 0.000000 0.000000 
0.470503 32.389942 171.270142 0.000000 0.000000 0.000000 10.846964 -30.500442 8.299201 -55.132003 -0.141026 31.044415 38.729860 16.671274 0.583079 -14.376213 -0.329465 4.031672 -1.053825 -2.233143 -2.691584 0.000000 0.000000 0.000000 8.660916 -31.986575 9.020872 -3.022783 11.601779 -6.951785 36.533408 11.220199 6.459034 -27.907982 -6.569922 9.267105 -6.531187 0.047109 -3.242511 0.000000 0.000000 0.000000 9.331356 -29.712255 8.559548 26.840661 8.093037 -7.222724 1.461928 -0.788220 -1.050850 2.491724 -1.293982 1.449248 0.000000 0.000000 0.000000 4.175471 -2.001032 0.297862 13.523862 8.137818 -14.325099 -25.616151 8.706677 -1.700987 0.000000 0.000000 0.000000 4.770243 -1.728431 1.197853 0.720161 -8.666708 -3.708216 4.408691 -0.456837 -3.047036 -68.228126 19.493927 -2.524620 -80.284564 -79.923015 -83.347357 0.000000 0.000000 0.000000 4.104540 -2.324968 1.108380 3.371152 14.590428 14.460149 -2.908271 3.044991 3.435121 11.284500 -28.497363 50.888652 -94.177374 47.565984 94.307079 0.000000 0.000000 0.000000 
0.474569 31.636024 176.535172 0.000000 0.000000 0.000000 7.735450 -31.145632 5.082713 -52.142812 5.912343 31.918604 40.013512 18.653271 -2.588564 -7.124736 -0.844785 3.279239 -2.670433 -2.156877 -1.512385 0.000000 0.000000 0.000000 5.736198 -33.406387 5.510687 1.881563 12.292963 -6.942873 42.074238 9.217737 4.227740 -26.462152 -4.816022 7.121490 -14.826843 -0.319611 -2.332286 0.000000 0.000000 0.000000 5.996206 -29.625290 5.382369 27.872359 7.991815 -6.295220 -0.730503 -0.150853 -0.190086 2.172254 -1.639646 2.072300 0.000000 0.000000 0.000000 2.049925 -1.481141 0.922667 12.701669 7.394800 -13.520441 -22.387668 8.983982 -2.409187 0.000000 0.000000 0.000000 1.962039 -1.381439 1.857981 0.143931 -11.306541 -4.669117 4.162687 0.552207 -2.164952 -62.442477 18.639783 -7.756623 -107.059506 -82.906380 -111.679959 0.000000 0.000000 0.000000 0.699551 -2.056158 1.880905 3.122850 11.998152 15.358616 -2.607896 4.295797 1.954894 18.386275 -32.902893 54.722052 -92.624913 51.267045 93.427794 0.000000 0.000000 0.000000 
